<svg id="visual" viewBox="0 0 1920 1080" width="1920" height="1080" xmlns="http://www.w3.org/2000/svg" xmlns:xlink="http://www.w3.org/1999/xlink" version="1.1"><rect x="0" y="0" width="1920" height="1080" fill="#ecf7ff"></rect><defs><linearGradient id="grad1_0" x1="43.8%" y1="0%" x2="100%" y2="100%"><stop offset="14.444444444444446%" stop-color="#6eb9f7" stop-opacity="1"></stop><stop offset="85.55555555555554%" stop-color="#6eb9f7" stop-opacity="1"></stop></linearGradient></defs><defs><linearGradient id="grad1_1" x1="43.8%" y1="0%" x2="100%" y2="100%"><stop offset="14.444444444444446%" stop-color="#6eb9f7" stop-opacity="1"></stop><stop offset="85.55555555555554%" stop-color="#81c2f8" stop-opacity="1"></stop></linearGradient></defs><defs><linearGradient id="grad1_2" x1="43.8%" y1="0%" x2="100%" y2="100%"><stop offset="14.444444444444446%" stop-color="#94cbf9" stop-opacity="1"></stop><stop offset="85.55555555555554%" stop-color="#81c2f8" stop-opacity="1"></stop></linearGradient></defs><defs><linearGradient id="grad1_3" x1="43.8%" y1="0%" x2="100%" y2="100%"><stop offset="14.444444444444446%" stop-color="#94cbf9" stop-opacity="1"></stop><stop offset="85.55555555555554%" stop-color="#a6d4fa" stop-opacity="1"></stop></linearGradient></defs><defs><linearGradient id="grad1_4" x1="43.8%" y1="0%" x2="100%" y2="100%"><stop offset="14.444444444444446%" stop-color="#b7ddfb" stop-opacity="1"></stop><stop offset="85.55555555555554%" stop-color="#a6d4fa" stop-opacity="1"></stop></linearGradient></defs><defs><linearGradient id="grad1_5" x1="43.8%" y1="0%" x2="100%" y2="100%"><stop offset="14.444444444444446%" stop-color="#b7ddfb" stop-opacity="1"></stop><stop offset="85.55555555555554%" stop-color="#c9e6fc" stop-opacity="1"></stop></linearGradient></defs><defs><linearGradient id="grad1_6" x1="43.8%" y1="0%" x2="100%" y2="100%"><stop offset="14.444444444444446%" stop-color="#daeefe" stop-opacity="1"></stop><stop offset="85.55555555555554%" stop-color="#c9e6fc" stop-opacity="1"></stop></linearGradient></defs><defs><linearGradient id="grad1_7" x1="43.8%" y1="0%" x2="100%" y2="100%"><stop offset="14.444444444444446%" stop-color="#daeefe" stop-opacity="1"></stop><stop offset="85.55555555555554%" stop-color="#ecf7ff" stop-opacity="1"></stop></linearGradient></defs><defs><linearGradient id="grad2_0" x1="0%" y1="0%" x2="56.3%" y2="100%"><stop offset="14.444444444444446%" stop-color="#6eb9f7" stop-opacity="1"></stop><stop offset="85.55555555555554%" stop-color="#6eb9f7" stop-opacity="1"></stop></linearGradient></defs><defs><linearGradient id="grad2_1" x1="0%" y1="0%" x2="56.3%" y2="100%"><stop offset="14.444444444444446%" stop-color="#81c2f8" stop-opacity="1"></stop><stop offset="85.55555555555554%" stop-color="#6eb9f7" stop-opacity="1"></stop></linearGradient></defs><defs><linearGradient id="grad2_2" x1="0%" y1="0%" x2="56.3%" y2="100%"><stop offset="14.444444444444446%" stop-color="#81c2f8" stop-opacity="1"></stop><stop offset="85.55555555555554%" stop-color="#94cbf9" stop-opacity="1"></stop></linearGradient></defs><defs><linearGradient id="grad2_3" x1="0%" y1="0%" x2="56.3%" y2="100%"><stop offset="14.444444444444446%" stop-color="#a6d4fa" stop-opacity="1"></stop><stop offset="85.55555555555554%" stop-color="#94cbf9" stop-opacity="1"></stop></linearGradient></defs><defs><linearGradient id="grad2_4" x1="0%" y1="0%" x2="56.3%" y2="100%"><stop offset="14.444444444444446%" stop-color="#a6d4fa" stop-opacity="1"></stop><stop offset="85.55555555555554%" stop-color="#b7ddfb" stop-opacity="1"></stop></linearGradient></defs><defs><linearGradient id="grad2_5" x1="0%" y1="0%" x2="56.3%" y2="100%"><stop offset="14.444444444444446%" stop-color="#c9e6fc" stop-opacity="1"></stop><stop offset="85.55555555555554%" stop-color="#b7ddfb" stop-opacity="1"></stop></linearGradient></defs><defs><linearGradient id="grad2_6" x1="0%" y1="0%" x2="56.3%" y2="100%"><stop offset="14.444444444444446%" stop-color="#c9e6fc" stop-opacity="1"></stop><stop offset="85.55555555555554%" stop-color="#daeefe" stop-opacity="1"></stop></linearGradient></defs><defs><linearGradient id="grad2_7" x1="0%" y1="0%" x2="56.3%" y2="100%"><stop offset="14.444444444444446%" stop-color="#ecf7ff" stop-opacity="1"></stop><stop offset="85.55555555555554%" stop-color="#daeefe" stop-opacity="1"></stop></linearGradient></defs><g transform="translate(1920, 0)"><path d="M0 1080C-167.6 1016.7 -335.1 953.3 -503 871.2C-670.9 789.1 -839.1 688.3 -935.3 540C-1031.5 391.7 -1055.8 195.8 -1080 0L0 0Z" fill="#e3f3fe"></path><path d="M0 945C-146.6 889.6 -293.2 834.1 -440.1 762.3C-587 690.5 -734.2 602.3 -818.4 472.5C-902.6 342.7 -923.8 171.4 -945 0L0 0Z" fill="#d2eafd"></path><path d="M0 810C-125.7 762.5 -251.3 715 -377.2 653.4C-503.2 591.9 -629.3 516.2 -701.5 405C-773.6 293.8 -791.8 146.9 -810 0L0 0Z" fill="#c0e1fc"></path><path d="M0 675C-104.7 635.4 -209.4 595.8 -314.4 544.5C-419.3 493.2 -524.4 430.2 -584.6 337.5C-644.7 244.8 -659.9 122.4 -675 0L0 0Z" fill="#afd9fb"></path><path d="M0 540C-83.8 508.3 -167.6 476.7 -251.5 435.6C-335.4 394.6 -419.5 344.2 -467.7 270C-515.8 195.8 -527.9 97.9 -540 0L0 0Z" fill="#9dd0fa"></path><path d="M0 405C-62.8 381.2 -125.7 357.5 -188.6 326.7C-251.6 295.9 -314.7 258.1 -350.7 202.5C-386.8 146.9 -395.9 73.4 -405 0L0 0Z" fill="#8bc7f9"></path><path d="M0 270C-41.9 254.2 -83.8 238.3 -125.7 217.8C-167.7 197.3 -209.8 172.1 -233.8 135C-257.9 97.9 -263.9 49 -270 0L0 0Z" fill="#78bef8"></path><path d="M0 135C-20.9 127.1 -41.9 119.2 -62.9 108.9C-83.9 98.6 -104.9 86 -116.9 67.5C-128.9 49 -132 24.5 -135 0L0 0Z" fill="#6eb9f7"></path></g><g transform="translate(0, 1080)"><path d="M0 -1080C203.3 -1060.1 406.7 -1040.2 540 -935.3C673.3 -830.4 736.6 -640.5 814.9 -470.5C893.3 -300.5 986.6 -150.2 1080 0L0 0Z" fill="#e3f3fe"></path><path d="M0 -945C177.9 -927.6 355.8 -910.2 472.5 -818.4C589.2 -726.6 644.5 -560.5 713.1 -411.7C781.6 -262.9 863.3 -131.4 945 0L0 0Z" fill="#d2eafd"></path><path d="M0 -810C152.5 -795.1 305 -780.1 405 -701.5C505 -622.8 552.5 -480.4 611.2 -352.9C669.9 -225.3 740 -112.7 810 0L0 0Z" fill="#c0e1fc"></path><path d="M0 -675C127.1 -662.6 254.2 -650.1 337.5 -584.6C420.8 -519 460.4 -400.3 509.3 -294.1C558.3 -187.8 616.6 -93.9 675 0L0 0Z" fill="#afd9fb"></path><path d="M0 -540C101.7 -530 203.3 -520.1 270 -467.7C336.7 -415.2 368.3 -320.3 407.5 -235.3C446.6 -150.2 493.3 -75.1 540 0L0 0Z" fill="#9dd0fa"></path><path d="M0 -405C76.3 -397.5 152.5 -390.1 202.5 -350.7C252.5 -311.4 276.2 -240.2 305.6 -176.4C335 -112.7 370 -56.3 405 0L0 0Z" fill="#8bc7f9"></path><path d="M0 -270C50.8 -265 101.7 -260 135 -233.8C168.3 -207.6 184.2 -160.1 203.7 -117.6C223.3 -75.1 246.7 -37.6 270 0L0 0Z" fill="#78bef8"></path><path d="M0 -135C25.4 -132.5 50.8 -130 67.5 -116.9C84.2 -103.8 92.1 -80.1 101.9 -58.8C111.7 -37.6 123.3 -18.8 135 0L0 0Z" fill="#6eb9f7"></path></g></svg>