<svg id="visual" viewBox="0 0 1024 2000" width="1024" height="2000" xmlns="http://www.w3.org/2000/svg" xmlns:xlink="http://www.w3.org/1999/xlink" version="1.1"><rect width="1024" height="2000" fill="#daecfc"></rect><g><g transform="translate(1003 78)"><path d="M0 -167.3L144.9 -83.6L144.9 83.6L0 167.3L-144.9 83.6L-144.9 -83.6Z" fill="#cce6fc"></path></g><g transform="translate(581 1083)"><path d="M0 -115L99.6 -57.5L99.6 57.5L0 115L-99.6 57.5L-99.6 -57.5Z" fill="#cce6fc"></path></g><g transform="translate(622 605)"><path d="M0 -95L82.3 -47.5L82.3 47.5L0 95L-82.3 47.5L-82.3 -47.5Z" fill="#cce6fc"></path></g><g transform="translate(540 269)"><path d="M0 -90L77.9 -45L77.9 45L0 90L-77.9 45L-77.9 -45Z" fill="#cce6fc"></path></g><g transform="translate(221 1703)"><path d="M0 -102L88.3 -51L88.3 51L0 102L-88.3 51L-88.3 -51Z" fill="#cce6fc"></path></g><g transform="translate(125 1116)"><path d="M0 -165L142.9 -82.5L142.9 82.5L0 165L-142.9 82.5L-142.9 -82.5Z" fill="#cce6fc"></path></g><g transform="translate(97 31)"><path d="M0 -107L92.7 -53.5L92.7 53.5L0 107L-92.7 53.5L-92.7 -53.5Z" fill="#cce6fc"></path></g></g></svg>